<svg width="23" height="23" viewBox="0 0 23 23" fill="none" xmlns="http://www.w3.org/2000/svg">
<path d="M9.88845 17.1012L10.771 15.0798C11.5564 13.281 12.9701 11.849 14.7335 11.0663L17.1627 9.98799C17.9349 9.64519 17.9349 8.52163 17.1627 8.17881L14.8093 7.13418C13.0005 6.3313 11.5615 4.84635 10.7896 2.98615L9.89559 0.831974C9.56385 0.03257 8.45931 0.032572 8.12758 0.831974L7.23358 2.98613C6.46159 4.84635 5.02256 6.3313 3.21384 7.13418L0.860499 8.17881C0.0881674 8.52163 0.0881664 9.64519 0.860499 9.98799L3.28971 11.0663C5.05309 11.849 6.46676 13.281 7.25216 15.0798L8.13472 17.1012C8.47396 17.8781 9.54917 17.8781 9.88845 17.1012ZM18.7245 22.0228L18.9727 21.454C19.4152 20.4397 20.2121 19.6321 21.2064 19.1904L21.9711 18.8506C22.3847 18.6669 22.3847 18.0658 21.9711 17.8821L21.2492 17.5613C20.2293 17.1082 19.4181 16.2708 18.9832 15.2221L18.7283 14.6073C18.5507 14.179 17.9584 14.179 17.7807 14.6073L17.5259 15.2221C17.0911 16.2708 16.2798 17.1082 15.2599 17.5613L14.538 17.8821C14.1245 18.0658 14.1245 18.6669 14.538 18.8506L15.3026 19.1904C16.297 19.6321 17.0939 20.4397 17.5363 21.454L17.7846 22.0228C17.9662 22.4392 18.5428 22.4392 18.7245 22.0228Z" fill="url(#paint0_linear_183_188)"/>
<defs>
<linearGradient id="paint0_linear_183_188" x1="-2.44943" y1="10.4416" x2="24.5973" y2="10.4416" gradientUnits="userSpaceOnUse">
<stop stop-color="#DD7DFF"/>
<stop offset="1" stop-color="#FFCC9C"/>
</linearGradient>
</defs>
</svg>
