<svg width="24" height="19" viewBox="0 0 24 19" fill="none" xmlns="http://www.w3.org/2000/svg">
<path d="M17.8066 9.0274C15.8428 9.0274 14.2448 10.6604 14.2448 12.6683C14.2448 14.6762 15.8428 16.3084 17.8066 16.3084C19.7705 16.3084 21.3684 14.6762 21.3684 12.6683C21.3684 10.6604 19.7705 9.0274 17.8066 9.0274Z" fill="url(#paint0_linear_183_205)"/>
<path d="M17.8066 6.3388C14.3914 6.3388 11.6132 9.17802 11.6132 12.6683C11.6132 16.1586 14.3914 18.9978 17.8066 18.9978C21.2218 18.9978 24 16.1586 24 12.6683C24 9.17802 21.2218 6.3388 17.8066 6.3388ZM17.8066 16.8904C15.5277 16.8904 13.6744 14.9964 13.6744 12.6674C13.6744 10.3385 15.5286 8.44355 17.8066 8.44355C20.0846 8.44355 21.9387 10.3385 21.9387 12.6674C21.9387 14.9964 20.0855 16.8904 17.8066 16.8904Z" fill="url(#paint1_linear_183_205)"/>
<path d="M1.76357 2.44643V0.88692C1.76357 0.398172 2.15318 0 2.63142 0H13.3536C13.8319 0 14.2215 0.398172 14.2215 0.88692V2.44553C14.2215 2.93428 13.8319 3.33245 13.3536 3.33245H2.63142C2.15318 3.33335 1.76357 2.93518 1.76357 2.44643Z" fill="url(#paint2_linear_183_205)"/>
<path d="M0 6.36196V4.80335C0 4.3146 0.389611 3.91643 0.867849 3.91643H11.59C12.0683 3.91643 12.4579 4.3146 12.4579 4.80335V6.36196C12.4579 6.85071 12.0692 7.24888 11.59 7.24888H0.867849C0.389611 7.24888 0 6.85161 0 6.36196Z" fill="url(#paint3_linear_183_205)"/>
<path d="M1.76357 10.2792V8.7188C1.76357 8.23184 2.15143 7.83636 2.62791 7.83636H12.9789C12.1128 8.74032 11.4889 9.88551 11.209 11.1625H2.62791C2.15143 11.1616 1.76357 10.7662 1.76357 10.2792Z" fill="url(#paint4_linear_183_205)"/>
<path d="M0 14.1985V12.6381C0 12.1457 0.387856 11.7458 0.864339 11.7458H11.11C11.0706 12.0489 11.0425 12.3547 11.0425 12.6686C11.0425 13.5178 11.2004 14.3285 11.476 15.0809H0.864339C0.387856 15.0818 0 14.6854 0 14.1985Z" fill="url(#paint5_linear_183_205)"/>
<path d="M13.351 19H2.62791C2.15143 19 1.76357 18.6 1.76357 18.1077V16.5473C1.76357 16.0603 2.15143 15.664 2.62791 15.664H11.7206C12.262 16.8083 13.1 17.7786 14.1372 18.4664C14.0012 18.7803 13.7011 19 13.351 19Z" fill="url(#paint6_linear_183_205)"/>
<defs>
<linearGradient id="paint0_linear_183_205" x1="1" y1="10" x2="24" y2="10" gradientUnits="userSpaceOnUse">
<stop stop-color="#DD7DFF"/>
<stop offset="1" stop-color="#FFCC9C"/>
</linearGradient>
<linearGradient id="paint1_linear_183_205" x1="1" y1="10" x2="24" y2="10" gradientUnits="userSpaceOnUse">
<stop stop-color="#DD7DFF"/>
<stop offset="1" stop-color="#FFCC9C"/>
</linearGradient>
<linearGradient id="paint2_linear_183_205" x1="1" y1="10" x2="24" y2="10" gradientUnits="userSpaceOnUse">
<stop stop-color="#DD7DFF"/>
<stop offset="1" stop-color="#FFCC9C"/>
</linearGradient>
<linearGradient id="paint3_linear_183_205" x1="1" y1="10" x2="24" y2="10" gradientUnits="userSpaceOnUse">
<stop stop-color="#DD7DFF"/>
<stop offset="1" stop-color="#FFCC9C"/>
</linearGradient>
<linearGradient id="paint4_linear_183_205" x1="1" y1="10" x2="24" y2="10" gradientUnits="userSpaceOnUse">
<stop stop-color="#DD7DFF"/>
<stop offset="1" stop-color="#FFCC9C"/>
</linearGradient>
<linearGradient id="paint5_linear_183_205" x1="1" y1="10" x2="24" y2="10" gradientUnits="userSpaceOnUse">
<stop stop-color="#DD7DFF"/>
<stop offset="1" stop-color="#FFCC9C"/>
</linearGradient>
<linearGradient id="paint6_linear_183_205" x1="1" y1="10" x2="24" y2="10" gradientUnits="userSpaceOnUse">
<stop stop-color="#DD7DFF"/>
<stop offset="1" stop-color="#FFCC9C"/>
</linearGradient>
</defs>
</svg>
