<svg width="34" height="34" viewBox="0 0 34 34" fill="none" xmlns="http://www.w3.org/2000/svg">
<rect x="0.5" y="0.5" width="33" height="33" stroke="black"/>
<path d="M19.787 25.127H13.915V26.1056H19.787V25.127Z" fill="black"/>
<path d="M12.9365 8.78879V11.7248L13.2252 12.0086C13.5085 12.2915 13.8451 12.5155 14.2155 12.6675C14.5859 12.8195 14.9828 12.8966 15.3832 12.8943V13.8729C14.498 13.8745 13.6373 13.5819 12.9365 13.0411V15.6296L13.2252 15.9134C13.5077 16.1981 13.8439 16.4239 14.2144 16.5776C14.5848 16.7313 14.9821 16.81 15.3832 16.8089V17.7876C14.498 17.7892 13.6373 17.4966 12.9365 16.9557V19.5443L13.2252 19.8281C13.5074 20.1132 13.8436 20.3393 14.2141 20.493C14.5846 20.6468 14.982 20.7252 15.3832 20.7236V21.7022C14.498 21.7038 13.6373 21.4112 12.9365 20.8704V24.1489H20.7658V21.0319C20.7657 17.8728 19.6457 14.8162 17.6047 12.4049H17.3405C17.2645 12.4049 17.1896 12.3873 17.1217 12.3533C17.0537 12.3193 16.9946 12.27 16.949 12.2092L15.481 10.2519L16.264 9.66469L17.5852 11.4263H19.7872C19.8939 11.4207 19.9995 11.4502 20.0878 11.5103C20.1762 11.5704 20.2424 11.6577 20.2765 11.759L20.7022 13.0362L22.1702 13.7653L23.2125 12.6936V11.1131L18.6128 5.59346L15.9508 6.04364C15.8803 6.05507 15.8082 6.05094 15.7394 6.03152C15.6707 6.0121 15.6071 5.97788 15.553 5.93124C15.4989 5.88461 15.4556 5.8267 15.4263 5.76159C15.397 5.69647 15.3823 5.62572 15.3832 5.55431V5.47602C15.3844 5.09981 15.3111 4.72709 15.1675 4.37938C15.0239 4.03166 14.8128 3.71585 14.5464 3.45018L14.0962 3L14.0473 3.11744C13.8739 3.54932 13.8083 4.01691 13.856 4.47983C13.9038 4.94275 14.0635 5.3871 14.3213 5.77451C14.3922 5.88239 14.4175 6.01388 14.3918 6.14035C14.3662 6.26682 14.2916 6.37804 14.1843 6.44978C13.8002 6.70711 13.4853 7.05515 13.2677 7.46312C13.05 7.87108 12.9363 8.3264 12.9365 8.78879Z" fill="black"/>
<path d="M18.4651 4.62615C18.3285 4.45929 18.1569 4.32455 17.9623 4.23152C17.7678 4.13849 17.5552 4.08945 17.3396 4.08789H16.0918C16.2059 4.37617 16.2863 4.67665 16.3316 4.98337L18.4651 4.62615Z" fill="black"/>
<path d="M11.9572 8.79015C11.9562 8.24473 12.0734 7.70557 12.3006 7.20974C12.5278 6.7139 12.8597 6.27315 13.2735 5.91778C13.0751 5.51666 12.946 5.08484 12.8918 4.64062C12.3498 4.7617 11.865 5.0636 11.5173 5.49668C11.1696 5.92977 10.9796 6.46827 10.9785 7.02367V20.035L11.9572 21.0136V8.79015Z" fill="black"/>
<path d="M23.7013 29.043H10V31.0003H23.7013V29.043Z" fill="black"/>
<path d="M22.7225 27.5733C22.7225 27.4435 22.6709 27.3191 22.5791 27.2273C22.4874 27.1355 22.3629 27.084 22.2331 27.084H11.4678C11.3381 27.084 11.2136 27.1355 11.1218 27.2273C11.0301 27.3191 10.9785 27.4435 10.9785 27.5733V28.0626H22.7225V27.5733Z" fill="black"/>
</svg>
